<svg xmlns="http://www.w3.org/2000/svg" width="15" height="17" viewBox="0 0 15 17">
  <path id="Icon_awesome-calendar-alt" data-name="Icon awesome-calendar-alt" d="M0,15.406A1.6,1.6,0,0,0,1.607,17H13.393A1.6,1.6,0,0,0,15,15.406V6.375H0ZM10.714,8.9a.4.4,0,0,1,.4-.4h1.339a.4.4,0,0,1,.4.4v1.328a.4.4,0,0,1-.4.4H11.116a.4.4,0,0,1-.4-.4Zm0,4.25a.4.4,0,0,1,.4-.4h1.339a.4.4,0,0,1,.4.4v1.328a.4.4,0,0,1-.4.4H11.116a.4.4,0,0,1-.4-.4ZM6.429,8.9a.4.4,0,0,1,.4-.4H8.17a.4.4,0,0,1,.4.4v1.328a.4.4,0,0,1-.4.4H6.83a.4.4,0,0,1-.4-.4Zm0,4.25a.4.4,0,0,1,.4-.4H8.17a.4.4,0,0,1,.4.4v1.328a.4.4,0,0,1-.4.4H6.83a.4.4,0,0,1-.4-.4ZM2.143,8.9a.4.4,0,0,1,.4-.4H3.884a.4.4,0,0,1,.4.4v1.328a.4.4,0,0,1-.4.4H2.545a.4.4,0,0,1-.4-.4Zm0,4.25a.4.4,0,0,1,.4-.4H3.884a.4.4,0,0,1,.4.4v1.328a.4.4,0,0,1-.4.4H2.545a.4.4,0,0,1-.4-.4ZM13.393,2.125H11.786V.531A.535.535,0,0,0,11.25,0H10.179a.535.535,0,0,0-.536.531V2.125H5.357V.531A.535.535,0,0,0,4.821,0H3.75a.535.535,0,0,0-.536.531V2.125H1.607A1.6,1.6,0,0,0,0,3.719V5.313H15V3.719A1.6,1.6,0,0,0,13.393,2.125Z" fill="#ff9617"/>
</svg>
