<svg xmlns="http://www.w3.org/2000/svg" width="15.177" height="17.026" viewBox="0 0 15.177 17.026">
  <g id="descending-arrangement" transform="translate(-20.708)">
    <path id="Path_249" data-name="Path 249" d="M20.708,11.215A.227.227,0,0,1,21.019,11l2.841,1.123V.227A.228.228,0,0,1,24.089,0h2.278a.227.227,0,0,1,.227.227v11.9L29.435,11a.228.228,0,0,1,.264.351l-4.292,5.583a.228.228,0,0,1-.361,0l-4.291-5.583A.225.225,0,0,1,20.708,11.215Zm8.684,5.22h6.493v-1.5H29.392Zm1.922-2.543h4.571v-1.5H31.314ZM33.6,11.329h2.286v-1.5H33.6Z" fill="#ff9617"/>
  </g>
</svg>
